<svg xmlns="http://www.w3.org/2000/svg" width="23" height="33.5" viewBox="0 0 23 33.5">
  <g id="icon-figma" transform="translate(-6.5 -2)">
    <path id="Path_4" data-name="Path 4" d="M7.5,8.25A5.25,5.25,0,0,1,12.75,3H18V13.5H12.75A5.25,5.25,0,0,1,7.5,8.25Z" fill="none" stroke="#212529" stroke-linecap="round" stroke-linejoin="round" stroke-width="2"/>
    <path id="Path_5" data-name="Path 5" d="M18,3h5.25a5.25,5.25,0,1,1,0,10.5H18Z" fill="none" stroke="#212529" stroke-linecap="round" stroke-linejoin="round" stroke-width="2"/>
    <path id="Path_6" data-name="Path 6" d="M18,18.75A5.25,5.25,0,1,1,23.25,24,5.25,5.25,0,0,1,18,18.75Z" fill="none" stroke="#212529" stroke-linecap="round" stroke-linejoin="round" stroke-width="2"/>
    <path id="Path_7" data-name="Path 7" d="M7.5,29.25A5.25,5.25,0,0,1,12.75,24H18v5.25a5.25,5.25,0,0,1-10.5,0Z" fill="none" stroke="#212529" stroke-linecap="round" stroke-linejoin="round" stroke-width="2"/>
    <path id="Path_8" data-name="Path 8" d="M7.5,18.75a5.25,5.25,0,0,1,5.25-5.25H18V24H12.75A5.25,5.25,0,0,1,7.5,18.75Z" fill="none" stroke="#212529" stroke-linecap="round" stroke-linejoin="round" stroke-width="2"/>
  </g>
</svg>
